<svg xmlns="http://www.w3.org/2000/svg" viewBox="0 0 1600 1100">
  <rect width="1600" height="1100" fill="#161615"/>

  <!-- browser chrome -->
  <rect width="1600" height="56" fill="#0a0a0a"/>
  <line x1="0" y1="56" x2="1600" y2="56" stroke="#292825"/>
  <circle cx="28" cy="28" r="6" fill="#292825"/>
  <circle cx="52" cy="28" r="6" fill="#292825"/>
  <circle cx="76" cy="28" r="6" fill="#292825"/>
  <rect x="150" y="14" width="340" height="28" rx="14" fill="#161615" stroke="#292825"/>

  <!-- nav -->
  <rect x="0" y="56" width="1600" height="88" fill="#0a0a0a"/>
  <line x1="0" y1="144" x2="1600" y2="144" stroke="#292825"/>
  <text x="48" y="112" font-family="Georgia, serif" font-size="30" font-weight="600" fill="#c9a24b" letter-spacing="1">HairGo</text>
  <text x="1170" y="105" font-family="monospace" font-size="12" letter-spacing="2" fill="#aeada9">STYLISTS</text>
  <text x="1290" y="105" font-family="monospace" font-size="12" letter-spacing="2" fill="#aeada9">BOOK</text>
  <text x="1400" y="105" font-family="monospace" font-size="12" letter-spacing="2" fill="#aeada9">SHOP</text>
  <text x="1490" y="105" font-family="monospace" font-size="12" letter-spacing="2" fill="#aeada9">CHAT</text>

  <!-- stylist row -->
  <text x="120" y="205" font-family="monospace" font-size="13" letter-spacing="2" fill="#6d6c68">OUR STYLISTS</text>
  <g>
    <circle cx="170" cy="290" r="60" fill="#0a0a0a" stroke="#292825"/>
    <circle cx="170" cy="272" r="20" fill="none" stroke="#aeada9" stroke-width="2.5"/>
    <path d="M132 320 q38 -30 76 0" fill="none" stroke="#aeada9" stroke-width="2.5"/>
    <rect x="130" y="360" width="80" height="12" rx="4" fill="#aeada9"/>

    <circle cx="410" cy="290" r="60" fill="#0a0a0a" stroke="#c9a24b" stroke-width="2"/>
    <circle cx="410" cy="272" r="20" fill="none" stroke="#aeada9" stroke-width="2.5"/>
    <path d="M372 320 q38 -30 76 0" fill="none" stroke="#aeada9" stroke-width="2.5"/>
    <rect x="370" y="360" width="80" height="12" rx="4" fill="#aeada9"/>

    <circle cx="650" cy="290" r="60" fill="#0a0a0a" stroke="#292825"/>
    <circle cx="650" cy="272" r="20" fill="none" stroke="#aeada9" stroke-width="2.5"/>
    <path d="M612 320 q38 -30 76 0" fill="none" stroke="#aeada9" stroke-width="2.5"/>
    <rect x="610" y="360" width="80" height="12" rx="4" fill="#aeada9"/>

    <circle cx="890" cy="290" r="60" fill="#0a0a0a" stroke="#292825"/>
    <circle cx="890" cy="272" r="20" fill="none" stroke="#aeada9" stroke-width="2.5"/>
    <path d="M852 320 q38 -30 76 0" fill="none" stroke="#aeada9" stroke-width="2.5"/>
    <rect x="850" y="360" width="80" height="12" rx="4" fill="#aeada9"/>
  </g>

  <!-- booking calendar panel -->
  <rect x="1030" y="190" width="450" height="500" rx="4" fill="#0a0a0a" stroke="#292825"/>
  <rect x="1066" y="222" width="200" height="18" rx="4" fill="#f5f4f0"/>
  <g>
    <rect x="1066" y="270" width="52" height="52" rx="4" fill="#161615" stroke="#292825"/>
    <rect x="1128" y="270" width="52" height="52" rx="4" fill="#161615" stroke="#c9a24b" stroke-width="2"/>
    <rect x="1190" y="270" width="52" height="52" rx="4" fill="#161615" stroke="#292825"/>
    <rect x="1252" y="270" width="52" height="52" rx="4" fill="#161615" stroke="#292825"/>
    <rect x="1314" y="270" width="52" height="52" rx="4" fill="#161615" stroke="#c9a24b" stroke-width="2"/>
    <rect x="1376" y="270" width="52" height="52" rx="4" fill="#161615" stroke="#292825"/>

    <rect x="1066" y="334" width="52" height="52" rx="4" fill="#161615" stroke="#292825"/>
    <rect x="1128" y="334" width="52" height="52" rx="4" fill="#161615" stroke="#292825"/>
    <rect x="1190" y="334" width="52" height="52" rx="4" fill="#161615" stroke="#c9a24b" stroke-width="2"/>
    <rect x="1252" y="334" width="52" height="52" rx="4" fill="#161615" stroke="#292825"/>
    <rect x="1314" y="334" width="52" height="52" rx="4" fill="#161615" stroke="#292825"/>
    <rect x="1376" y="334" width="52" height="52" rx="4" fill="#161615" stroke="#292825"/>
  </g>
  <rect x="1066" y="420" width="360" height="1" fill="#292825"/>
  <rect x="1066" y="450" width="360" height="14" rx="4" fill="#aeada9"/>
  <rect x="1066" y="480" width="240" height="14" rx="4" fill="#6d6c68"/>
  <rect x="1066" y="600" width="360" height="46" rx="23" fill="#c9a24b"/>
  <rect x="1200" y="617" width="90" height="12" rx="6" fill="#161615"/>

  <!-- chat bubble -->
  <circle cx="1470" cy="960" r="42" fill="#c9a24b"/>
  <path d="M1452 955 h36 M1452 968 h24" stroke="#161615" stroke-width="4" stroke-linecap="round"/>

  <!-- product shelf -->
  <text x="120" y="480" font-family="monospace" font-size="13" letter-spacing="2" fill="#6d6c68">SHOP PRODUCTS</text>
  <rect x="120" y="510" width="220" height="160" rx="4" fill="#0a0a0a" stroke="#292825"/>
  <rect x="360" y="510" width="220" height="160" rx="4" fill="#0a0a0a" stroke="#292825"/>
  <rect x="600" y="510" width="220" height="160" rx="4" fill="#0a0a0a" stroke="#292825"/>
  <rect x="840" y="510" width="220" height="160" rx="4" fill="#0a0a0a" stroke="#292825"/>

  <line x1="120" y1="1030" x2="1480" y2="1030" stroke="#292825"/>
</svg>
