<svg xmlns="http://www.w3.org/2000/svg" viewBox="0 0 1600 1100">
  <rect width="1600" height="1100" fill="#161615"/>

  <!-- title bar -->
  <rect width="1600" height="60" fill="#0a0a0a"/>
  <line x1="0" y1="60" x2="1600" y2="60" stroke="#292825"/>
  <text x="40" y="38" font-family="ui-monospace, monospace" font-size="16" letter-spacing="1" fill="#aeada9">Store Manager</text>
  <rect x="1480" y="20" width="20" height="20" fill="none" stroke="#6d6c68"/>
  <rect x="1520" y="20" width="20" height="20" fill="none" stroke="#6d6c68"/>
  <rect x="1560" y="20" width="20" height="20" fill="none" stroke="#c9a24b"/>

  <!-- sidebar -->
  <rect x="0" y="60" width="260" height="1040" fill="#0a0a0a"/>
  <line x1="260" y1="60" x2="260" y2="1100" stroke="#292825"/>

  <g transform="translate(0,140)">
    <rect x="20" y="0" width="220" height="56" rx="4" fill="#161615" stroke="#c9a24b" stroke-width="2"/>
    <path d="M50 14 l14 -8 l14 8 v30 h-28 z" fill="none" stroke="#c9a24b" stroke-width="2.5"/>
    <text x="90" y="34" font-family="ui-monospace, monospace" font-size="14" fill="#f5f4f0">Clothes</text>
  </g>
  <g transform="translate(0,210)">
    <rect x="20" y="0" width="220" height="56" rx="4" fill="none"/>
    <path d="M46 34 q4 -20 20 -20 q4 -8 14 -6 q10 -6 16 4 q10 0 8 12 q4 6 -2 10 h-56 z" fill="none" stroke="#6d6c68" stroke-width="2.5"/>
    <text x="90" y="34" font-family="ui-monospace, monospace" font-size="14" fill="#aeada9">Shoes</text>
  </g>
  <g transform="translate(0,280)">
    <rect x="20" y="0" width="220" height="56" rx="4" fill="none"/>
    <path d="M52 14 h28 v34 h-28 z M58 14 v-8 q8 -10 16 0 v8" fill="none" stroke="#6d6c68" stroke-width="2.5"/>
    <text x="90" y="34" font-family="ui-monospace, monospace" font-size="14" fill="#aeada9">Accessories</text>
  </g>

  <!-- main header -->
  <rect x="300" y="110" width="220" height="24" rx="4" fill="#f5f4f0"/>
  <rect x="1360" y="104" width="180" height="40" rx="4" fill="#c9a24b"/>
  <rect x="1400" y="118" width="100" height="12" rx="4" fill="#161615"/>

  <!-- table -->
  <rect x="300" y="180" width="1240" height="56" fill="#0a0a0a" stroke="#292825"/>
  <rect x="330" y="200" width="120" height="12" rx="3" fill="#6d6c68"/>
  <rect x="620" y="200" width="160" height="12" rx="3" fill="#6d6c68"/>
  <rect x="900" y="200" width="100" height="12" rx="3" fill="#6d6c68"/>
  <rect x="1120" y="200" width="100" height="12" rx="3" fill="#6d6c68"/>
  <rect x="1360" y="200" width="140" height="12" rx="3" fill="#6d6c68"/>

  <g>
    <rect x="300" y="236" width="1240" height="86" fill="#161615" stroke="#292825"/>
    <rect x="330" y="260" width="46" height="38" rx="3" fill="#0a0a0a" stroke="#292825"/>
    <rect x="620" y="266" width="220" height="14" rx="4" fill="#aeada9"/>
    <rect x="900" y="266" width="70" height="14" rx="4" fill="#c9a24b"/>
    <rect x="1120" y="266" width="70" height="14" rx="4" fill="#aeada9"/>
    <rect x="1360" y="260" width="90" height="26" rx="13" fill="none" stroke="#6d6c68"/>

    <rect x="300" y="322" width="1240" height="86" fill="#0a0a0a" stroke="#292825"/>
    <rect x="330" y="346" width="46" height="38" rx="3" fill="#161615" stroke="#292825"/>
    <rect x="620" y="352" width="180" height="14" rx="4" fill="#aeada9"/>
    <rect x="900" y="352" width="70" height="14" rx="4" fill="#c9a24b"/>
    <rect x="1120" y="352" width="70" height="14" rx="4" fill="#aeada9"/>
    <rect x="1360" y="346" width="90" height="26" rx="13" fill="none" stroke="#6d6c68"/>

    <rect x="300" y="408" width="1240" height="86" fill="#161615" stroke="#292825"/>
    <rect x="330" y="432" width="46" height="38" rx="3" fill="#0a0a0a" stroke="#292825"/>
    <rect x="620" y="438" width="260" height="14" rx="4" fill="#aeada9"/>
    <rect x="900" y="438" width="70" height="14" rx="4" fill="#c9a24b"/>
    <rect x="1120" y="438" width="70" height="14" rx="4" fill="#aeada9"/>
    <rect x="1360" y="432" width="90" height="26" rx="13" fill="none" stroke="#6d6c68"/>

    <rect x="300" y="494" width="1240" height="86" fill="#0a0a0a" stroke="#292825"/>
    <rect x="330" y="518" width="46" height="38" rx="3" fill="#161615" stroke="#292825"/>
    <rect x="620" y="524" width="200" height="14" rx="4" fill="#aeada9"/>
    <rect x="900" y="524" width="70" height="14" rx="4" fill="#c9a24b"/>
    <rect x="1120" y="524" width="70" height="14" rx="4" fill="#aeada9"/>
    <rect x="1360" y="518" width="90" height="26" rx="13" fill="none" stroke="#6d6c68"/>

    <rect x="300" y="580" width="1240" height="86" fill="#161615" stroke="#292825"/>
    <rect x="330" y="604" width="46" height="38" rx="3" fill="#0a0a0a" stroke="#292825"/>
    <rect x="620" y="610" width="230" height="14" rx="4" fill="#aeada9"/>
    <rect x="900" y="610" width="70" height="14" rx="4" fill="#c9a24b"/>
    <rect x="1120" y="610" width="70" height="14" rx="4" fill="#aeada9"/>
    <rect x="1360" y="604" width="90" height="26" rx="13" fill="none" stroke="#6d6c68"/>
  </g>

  <rect x="300" y="700" width="1240" height="1" fill="#292825"/>
  <text x="300" y="750" font-family="ui-monospace, monospace" font-size="13" letter-spacing="1" fill="#6d6c68">MySQL connected</text>
</svg>
